<?xml version="1.0" encoding="UTF-8"?>
<svg id="Layer_2" data-name="Layer 2" xmlns="http://www.w3.org/2000/svg" width="2621.44" height="462.16" xmlns:xlink="http://www.w3.org/1999/xlink" viewBox="0 0 2621.44 462.16">
  <defs>
    <style>
      .cls-1 {
        fill: url(#linear-gradient);
      }
    </style>
    <linearGradient id="linear-gradient" x1="0" y1="231.08" x2="2621.44" y2="231.08" gradientUnits="userSpaceOnUse">
      <stop offset="0" stop-color="#833ddd"/>
      <stop offset="1" stop-color="#0040ff"/>
    </linearGradient>
  </defs>
  <g id="Layer_1-2" data-name="Layer 1">
    <path class="cls-1" d="M818.72,141.47c-23.11-22.33-56.6-33.49-100.47-33.49h-82.25v264h82.25c43.87,0,77.36-11.22,100.47-33.69,23.11-22.45,34.67-55.62,34.67-99.49s-11.56-75.01-34.67-97.34ZM796.51,279.1c-3.91,11.21-9.45,20.47-16.62,27.77-7.17,7.3-15.97,12.65-26.4,16.04-10.43,3.39-22.17,5.08-35.2,5.08h-31.29v-176h31.29c13.03,0,24.77,1.56,35.2,4.69,10.43,3.13,19.23,8.15,26.4,15.06,7.17,6.91,12.71,15.91,16.62,26.99,3.91,11.09,5.87,24.44,5.87,40.09s-1.96,29.08-5.87,40.28ZM942.52,111.68c5.22,5.62,7.84,12.22,7.84,19.8s-2.62,14.18-7.84,19.79c-5.23,5.62-12.68,8.43-22.34,8.43s-17.12-2.81-22.34-8.43c-5.23-5.62-7.84-12.21-7.84-19.79s2.61-14.17,7.84-19.8c5.22-5.62,12.67-8.43,22.34-8.43s17.11,2.81,22.34,8.43ZM895,182.98h50v189h-50v-189ZM1128.13,297.49c3,6.66,4.51,14.57,4.51,23.72,0,15.94-6.66,29.2-19.99,39.79-13.33,10.58-32.67,15.88-58.02,15.88-12.54,0-24.83-1.24-36.85-3.72-12.02-2.48-22.61-6.08-31.75-10.78l11.37-37.63c7.31,3.66,15.88,6.8,25.68,9.41,9.8,2.62,19.66,3.92,29.6,3.92,10.98,0,18.88-1.63,23.72-4.9,4.83-3.26,7.25-7.77,7.25-13.52,0-7.58-3.53-13.33-10.58-17.25-7.06-3.92-16.07-7.58-27.05-10.98-8.1-2.35-15.68-5.03-22.74-8.04-7.06-3-13.2-6.79-18.42-11.37-5.23-4.57-9.35-10-12.35-16.27-3.01-6.27-4.51-13.85-4.51-22.74,0-16.98,6.66-30.38,19.99-40.18,13.33-9.8,31.49-14.7,54.49-14.7,10.98,0,22.08.98,33.32,2.94,11.23,1.96,21.82,5.55,31.75,10.78l-11.37,36.85c-7.58-3.92-15.81-6.86-24.7-8.82-8.89-1.96-17.64-2.94-26.26-2.94-9.93,0-17.12,1.37-21.56,4.12-4.45,2.74-6.66,6.73-6.66,11.96,0,5.75,2.55,10.19,7.64,13.33,5.1,3.14,11.82,6.14,20.19,9.02,10.98,3.66,20.64,7.39,29.01,11.17,8.36,3.79,15.42,8.23,21.17,13.33,5.75,5.1,10.12,10.98,13.13,17.64ZM1273.08,327.74l10.19,36.46c-6.54,4.18-13.4,7.32-20.58,9.41-7.19,2.09-15.23,3.14-24.11,3.14-21.17,0-36.39-5.1-45.67-15.29-9.28-10.19-13.92-26-13.92-47.43v-96.04h-29v-35h29.52l11.83-54h36.66v54h54v35h-54v96.43c0,7.84,1.57,13.52,4.7,17.05,3.14,3.53,7.97,5.29,14.5,5.29,8.62,0,17.25-3,25.87-9.02ZM1428.74,181.22c4.82,1.96,8.79,4.37,11.91,7.24l-10.55,45.39c-6.78-5.48-15.5-8.22-26.17-8.22-7.03,0-13.87,1.63-20.51,4.89-6.64,3.26-11.79,8.41-15.43,15.46v126h-50v-189h43.75l6.25,27.78c2.08-4.17,4.49-8.22,7.23-12.13s5.92-7.37,9.57-10.37c3.64-3,7.81-5.41,12.5-7.24,4.69-1.82,10.02-2.74,16.01-2.74,5.47,0,10.61.98,15.43,2.94ZM1517.18,111.68c5.22,5.62,7.84,12.22,7.84,19.8s-2.62,14.18-7.84,19.79c-5.23,5.62-12.68,8.43-22.34,8.43s-17.12-2.81-22.34-8.43c-5.23-5.62-7.84-12.21-7.84-19.79s2.61-14.17,7.84-19.8c5.22-5.62,12.67-8.43,22.34-8.43s17.11,2.81,22.34,8.43ZM1470,182.98h50v189h-50v-189ZM1763.63,232.15c4.17-2.09,8.35-4.76,12.53-8.03,4.17-3.26,7.96-7.11,11.36-11.55,3.39-4.44,6.13-9.46,8.22-15.08,2.09-5.61,3.13-11.81,3.13-18.6,0-21.41-7.05-38.58-21.15-51.51-14.1-12.93-35.91-19.39-65.41-19.39h-107.32v264h105.76c17.23,0,32.05-1.96,44.46-5.88,12.4-3.92,22.65-9.33,30.75-16.26,8.09-6.92,14.03-15.08,17.82-24.48,3.78-9.4,5.68-19.58,5.68-30.55,0-17.49-4.44-31.4-13.32-41.72-8.88-10.31-19.72-17.29-32.51-20.95ZM1655,149.98h57.6c11.68,0,20.88,2.79,27.63,8.37,6.74,5.58,10.12,13.3,10.12,23.16,0,11.68-3.5,20.18-10.51,25.49-7.01,5.32-15.96,7.98-26.86,7.98h-57.99v-65ZM1747.89,319.75c-8.92,6.83-21.26,10.23-37,10.23h-55.89v-74h54.71c16.27,0,28.93,3.02,37.98,9.05,9.05,6.04,13.58,14.96,13.58,26.77s-4.46,21.13-13.38,27.95ZM1960.74,181.22c4.82,1.96,8.79,4.37,11.91,7.24l-10.55,45.39c-6.78-5.48-15.5-8.22-26.17-8.22-7.03,0-13.87,1.63-20.51,4.89-6.64,3.26-11.79,8.41-15.43,15.46v126h-50v-189h43.75l6.25,27.78c2.08-4.17,4.49-8.22,7.23-12.13s5.92-7.37,9.57-10.37c3.64-3,7.81-5.41,12.5-7.24,4.69-1.82,10.02-2.74,16.01-2.74,5.47,0,10.61.98,15.43,2.94ZM2065.15,178.22c-14.76,0-28.59,1.9-41.49,5.68-12.91,3.79-23.45,8.42-31.61,13.9l11.06,34.45c8.43-4.95,17.19-8.81,26.28-11.55,9.09-2.74,19.03-4.11,29.83-4.11,23.18,0,34.77,10.05,34.77,30.14v6.26h-26.87c-13.44,0-25.56,1.17-36.35,3.52-10.81,2.35-19.96,6.14-27.46,11.35-7.51,5.22-13.31,12.01-17.39,20.35-4.09,8.36-6.13,18.53-6.13,30.53,0,9.14,1.58,17.22,4.74,24.27,3.16,7.05,7.44,13.11,12.84,18.2,5.4,5.09,11.66,8.94,18.77,11.55,7.11,2.61,14.75,3.91,22.92,3.91,7.37,0,13.96-.85,19.76-2.54,5.79-1.7,10.93-3.91,15.41-6.65,4.48-2.74,8.3-5.87,11.46-9.39,3.16-3.52,5.93-7.11,8.3-10.77l5.53,24.66h43.47v-122.52c0-22.44-6.32-39.93-18.97-52.46-12.65-12.53-32.27-18.79-58.88-18.79ZM2095,295.39c0,6.01-1.05,11.76-3.14,17.25-2.09,5.49-5.1,10.33-9.02,14.5-3.92,4.18-8.62,7.52-14.11,10-5.49,2.49-11.5,3.72-18.03,3.72s-11.5-2.16-15.68-6.47c-4.18-4.31-6.27-10-6.27-17.05,0-9.93,3.39-17.64,10.19-23.13,6.79-5.49,16.46-8.23,29.01-8.23h27.05v9.41ZM2242.37,111.68c5.22,5.62,7.84,12.22,7.84,19.8s-2.62,14.18-7.84,19.79c-5.23,5.62-12.68,8.43-22.34,8.43s-17.12-2.81-22.34-8.43c-5.23-5.62-7.84-12.21-7.84-19.79s2.61-14.17,7.84-19.8c5.22-5.62,12.67-8.43,22.34-8.43s17.11,2.81,22.34,8.43ZM2195,182.98h50v189h-50v-189ZM2455.34,197.85c11.1,13.05,16.66,31.44,16.66,55.17v118.96h-50v-117.6c0-12.02-2.1-21.1-6.3-27.24-4.2-6.14-11.29-9.21-21.26-9.21-9.19,0-17.91,2.62-26.17,7.84-8.27,5.23-15.03,10.98-20.27,17.25v128.97h-50v-189h44.68l5.49,24.65c2.87-3.13,6.47-6.46,10.78-9.98,4.31-3.52,9.07-6.71,14.3-9.59,5.22-2.87,11.03-5.22,17.44-7.04,6.4-1.82,13.13-2.74,20.18-2.74,18.55,0,33.37,6.52,44.48,19.57ZM2617.24,92.99c-2.8-6.65-6.65-12.47-11.54-17.49-4.9-5.01-10.7-8.95-17.4-11.81-6.71-2.86-13.96-4.29-21.77-4.29s-15.25,1.43-21.95,4.29c-6.71,2.86-12.51,6.79-17.4,11.81-4.9,5.01-8.72,10.84-11.46,17.49-2.74,6.65-4.11,13.76-4.11,21.34s1.37,14.69,4.11,21.34c2.74,6.65,6.56,12.48,11.46,17.49,4.9,5.02,10.7,8.95,17.4,11.81,6.7,2.86,14.02,4.29,21.95,4.29s15.07-1.43,21.77-4.29c6.7-2.86,12.51-6.79,17.4-11.81,4.9-5.01,8.75-10.84,11.54-17.49,2.8-6.65,4.2-13.76,4.2-21.34s-1.4-14.69-4.2-21.34ZM2606.58,131.9c-2.22,5.42-5.25,10.17-9.09,14.25-3.85,4.08-8.43,7.29-13.73,9.62-5.31,2.33-11.05,3.5-17.23,3.5s-11.92-1.16-17.23-3.5c-5.31-2.33-9.88-5.54-13.73-9.62-3.85-4.08-6.88-8.83-9.09-14.25-2.22-5.42-3.32-11.28-3.32-17.58s1.11-12.15,3.32-17.58c2.21-5.42,5.25-10.17,9.09-14.25,3.85-4.08,8.42-7.29,13.73-9.62,5.3-2.33,11.05-3.5,17.23-3.5s11.92,1.17,17.23,3.5c5.3,2.33,9.88,5.54,13.73,9.62,3.85,4.08,6.88,8.83,9.09,14.25,2.21,5.42,3.32,11.28,3.32,17.58s-1.11,12.16-3.32,17.58ZM2585.59,130.94l2.8,9.62c-5.48,3.5-12.07,5.25-19.76,5.25-5.01,0-9.45-.81-13.29-2.45-3.85-1.63-7.06-3.85-9.62-6.65-2.57-2.8-4.52-6.09-5.86-9.88-1.34-3.79-2.01-7.9-2.01-12.33s.67-8.57,2.01-12.42c1.34-3.85,3.35-7.17,6.03-9.97,2.68-2.8,6-4.98,9.97-6.56,3.96-1.57,8.51-2.36,13.64-2.36,3.73,0,7.14.44,10.23,1.31,3.09.88,5.8,2.07,8.13,3.59l-3.15,9.27c-2.45-1.28-4.84-2.24-7.17-2.89-2.33-.64-5.01-.96-8.05-.96-6.06,0-10.52,1.92-13.38,5.77-2.86,3.85-4.29,8.92-4.29,15.22s1.4,11.37,4.2,15.22c2.8,3.85,7.35,5.77,13.64,5.77,2.45,0,5.07-.35,7.87-1.05,2.8-.7,5.48-1.86,8.04-3.5ZM231.08,0h0C103.46,0,0,103.46,0,231.08h0c0,127.62,103.46,231.08,231.08,231.08h0c127.62,0,231.08-103.46,231.08-231.08h0C462.16,103.46,358.7,0,231.08,0ZM342.73,90.35c19.61,18.1,20.97,18.2,34.01,31.2q10.53,10.51,7.12,24.37l-5.91,19.87c-12.17-11.65-17.57-17.28-32.16-29.69-22.39-19.05-19.58-21.55-44.27-13.02-12.98,4.49-40.5,15.19-47.3,17.52-7.72,2.64-14.24,7.81-15.9,14.97-3.62,15.62-4.4,22.42-6.8,34.76-1.99,10.25-3.38,18.59-5.01,30.97-.84-.54-8.16-7.24-17.99-15.39-12.02-9.97-10.59-13.01-8.67-26.33,2.35-16.27,2.27-16.79,6.86-36.66q4.97-21.5,31.05-31.36c19.95-7.54,65.63-22.64,78.11-27.46,13.47-5.2,15.5-4.25,26.87,6.25ZM131.67,166.37c3.44-21.05,13.21-68.16,15.28-81.37,2.23-14.26,4.07-15.54,18.84-20.14,25.48-7.93,26.24-9.06,44.03-13.85q14.37-3.87,24.66,6.02l14.25,15.05c-16.18,4.72-23.75,6.58-41.79,13.01-27.69,9.87-28.45,6.18-33.41,31.83-2.61,13.49-7.09,42.67-8.48,49.72-1.57,8.01-.36,16.24,5.01,21.25,11.72,10.94,17.21,15.02,26.7,23.27,7.88,6.85,14.41,12.23,24.31,19.82-.89.46-10.35,3.45-22.32,7.89-14.64,5.43-16.56,2.67-27.14-5.66-12.92-10.17-13.41-10.36-28.32-24.27q-16.13-15.05-11.63-42.57ZM63.27,231.73c-11.24-9.07-11.43-11.3-8.02-26.39,5.87-26.03,5.27-27.26,10.02-45.05q3.83-14.37,17.54-18.35l20.16-4.82c-4,16.37-6.18,23.86-9.63,42.69-5.3,28.91-8.88,27.73,10.86,44.85,10.38,9,33.41,27.48,38.82,32.2,6.15,5.37,13.88,8.43,20.91,6.28,15.34-4.68,21.62-7.4,33.51-11.49,9.87-3.4,17.79-6.36,29.32-11.15-.05.99-2.19,10.69-4.33,23.28-2.62,15.4-5.97,15.68-18.47,20.68-15.26,6.1-15.68,6.43-35.18,12.39q-21.1,6.45-42.69-11.21c-16.51-13.51-52.42-45.51-62.83-53.91ZM121.63,371.31c-19.61-18.1-20.97-18.2-34.01-31.2q-10.53-10.51-7.12-24.37l5.91-19.87c12.17,11.65,17.57,17.28,32.16,29.69,22.39,19.05,19.58,21.55,44.27,13.02,12.98-4.49,40.5-15.19,47.3-17.52,7.72-2.64,14.24-7.81,15.9-14.97,3.62-15.62,4.4-22.42,6.8-34.76,1.99-10.25,3.38-18.59,5.01-30.97.84.54,8.16,7.24,17.99,15.39,12.02,9.97,10.59,13.01,8.67,26.33-2.35,16.27-2.27,16.79-6.86,36.66q-4.97,21.5-31.05,31.36c-19.95,7.54-65.63,22.64-78.11,27.46-13.47,5.2-15.5,4.25-26.87-6.25ZM332.68,295.3c-3.44,21.05-13.21,68.16-15.28,81.37-2.23,14.26-4.07,15.54-18.84,20.14-25.48,7.93-26.24,9.06-44.03,13.85q-14.37,3.87-24.66-6.02l-14.25-15.05c16.18-4.72,23.75-6.58,41.79-13.01,27.69-9.87,28.45-6.18,33.41-31.83,2.61-13.49,7.09-42.67,8.48-49.72,1.57-8.01.36-16.24-5.01-21.25-11.72-10.94-17.21-15.02-26.7-23.27-7.88-6.85-14.41-12.23-24.31-19.82.89-.46,10.35-3.45,22.32-7.89,14.64-5.43,16.56-2.67,27.14,5.66,12.92,10.17,13.41,10.36,28.32,24.27q16.13,15.05,11.63,42.57ZM409.11,256.33c-5.87,26.03-5.27,27.26-10.02,45.05q-3.83,14.37-17.54,18.35l-20.16,4.82c4-16.37,6.18-23.86,9.63-42.69,5.3-28.91,8.88-27.73-10.86-44.85-10.38-9-33.41-27.48-38.82-32.2-6.15-5.37-13.88-8.43-20.91-6.28-15.34,4.68-21.62,7.4-33.51,11.49-9.87,3.4-17.79,6.37-29.32,11.15.05-.99,2.19-10.69,4.33-23.28,2.62-15.4,5.97-15.68,18.47-20.68,15.26-6.1,15.68-6.43,35.18-12.39q21.1-6.45,42.69,11.21c16.51,13.51,52.42,45.51,62.83,53.91,11.24,9.07,11.43,11.3,8.02,26.39Z"/>
  </g>
</svg>